<?xml version="1.0" standalone="no"?>
<!DOCTYPE svg PUBLIC "-//W3C//DTD SVG 20010904//EN"
 "http://www.w3.org/TR/2001/REC-SVG-20010904/DTD/svg10.dtd">
<svg version="1.0" xmlns="http://www.w3.org/2000/svg"
 width="1360.000000pt" height="900.000000pt" viewBox="0 0 1360.000000 900.000000"
 preserveAspectRatio="xMidYMid meet">

<g transform="translate(0.000000,900.000000) scale(0.100000,-0.100000)"
fill="#000000" stroke="none">
<path d="M6565 8879 l-279 -120 -46 20 c-151 66 -144 60 -123 84 18 20 17 20
-2 12 -44 -17 -63 -15 -127 14 -37 17 -72 31 -79 31 -6 0 -257 -105 -558 -234
l-548 -234 -111 15 -110 16 -338 -145 c-187 -80 -625 -268 -975 -417 l-637
-272 -122 55 c-68 31 -128 56 -134 56 -10 0 -214 -87 -1746 -741 l-625 -267
-3 -991 c-1 -545 0 -991 3 -991 5 0 464 194 555 235 30 13 336 144 680 291
344 146 717 305 830 354 113 48 324 138 470 200 l265 112 75 75 75 76 141 18
141 18 949 406 c522 223 1414 605 1982 848 567 243 1032 444 1032 447 0 3 -51
27 -112 54 -62 27 -116 52 -121 56 -4 3 102 53 235 110 640 272 2088 892 2143
916 25 11 -78 13 -668 14 -391 0 -696 -4 -693 -9 3 -4 -124 -63 -281 -131
l-287 -122 -51 22 c-27 12 -58 24 -67 27 -10 3 -18 8 -18 12 0 3 38 21 83 40
45 19 114 49 152 66 39 17 100 44 138 60 37 15 67 30 67 32 0 1 -197 3 -437 2
l-438 0 -280 -120z"/>
<path d="M11290 8904 c-118 -53 -238 -106 -267 -120 -28 -13 -57 -24 -63 -24
-6 0 -8 -4 -5 -10 4 -6 -1 -7 -11 -3 -12 4 -15 3 -10 -5 4 -8 2 -10 -8 -6 -8
3 -31 -3 -53 -14 -21 -11 -134 -61 -252 -111 l-214 -92 -204 30 -205 29 -71
-30 c-40 -16 -108 -46 -152 -67 -44 -21 -101 -46 -127 -57 -27 -10 -48 -22
-48 -26 0 -5 -11 -8 -24 -8 -13 0 -29 -7 -36 -15 -7 -8 -19 -15 -26 -15 -7 0
-30 -9 -50 -21 -20 -11 -57 -27 -83 -35 -25 -9 -68 -26 -96 -39 -27 -13 -68
-30 -90 -38 -22 -8 -78 -33 -125 -55 -47 -22 -128 -58 -180 -80 -52 -22 -178
-77 -280 -122 -102 -45 -225 -99 -275 -120 -72 -30 -337 -147 -510 -224 -16
-8 -52 -24 -80 -36 -27 -12 -63 -27 -80 -35 -16 -7 -223 -99 -460 -203 -236
-104 -515 -228 -620 -275 -104 -46 -284 -126 -400 -177 -115 -51 -232 -103
-260 -115 -46 -22 -373 -165 -457 -202 -21 -9 -35 -19 -33 -23 3 -4 50 -27
105 -50 55 -24 100 -46 100 -50 0 -15 69 -17 150 -5 66 10 121 29 245 84 88
39 213 94 278 123 l118 51 69 -10 69 -9 153 67 c741 324 1032 449 1048 449 10
0 50 -14 90 -31 l72 -30 96 42 c54 23 115 50 137 59 22 10 94 42 160 70 66 29
143 62 170 75 28 12 140 61 250 109 110 48 214 93 230 101 17 7 84 36 150 65
66 29 143 63 172 76 29 13 64 29 79 34 30 12 539 234 864 377 118 53 235 103
260 113 25 10 106 45 180 78 74 33 193 86 265 117 71 32 139 64 150 71 11 8
27 14 35 14 22 0 84 66 75 79 -3 6 -1 10 5 9 6 -2 39 28 73 65 l63 69 104 -47
c58 -26 120 -54 138 -62 32 -15 35 -15 195 52 89 38 185 78 212 91 28 12 109
47 180 77 72 31 162 69 200 86 l70 30 -286 1 -286 0 -119 -51 c-228 -98 -378
-159 -382 -154 -5 5 29 47 97 120 73 79 77 85 55 84 -11 0 -116 -43 -234 -95z"/>
<path d="M12207 8118 c-758 -325 -1376 -592 -1374 -594 4 -4 218 86 906 380
239 102 436 184 438 182 2 -2 -36 -20 -84 -41 -48 -21 -212 -93 -363 -160
-151 -67 -341 -150 -423 -184 -81 -35 -145 -67 -141 -72 3 -5 -1 -6 -8 -4 -14
6 -582 -234 -574 -242 2 -3 18 3 36 12 17 9 36 15 41 13 5 -2 -126 -61 -291
-132 -165 -71 -299 -131 -296 -133 2 -2 19 3 37 12 132 60 2003 854 2006 851
2 -2 -288 -128 -644 -281 -356 -153 -753 -326 -883 -385 -129 -58 -324 -146
-432 -195 -108 -49 -196 -91 -194 -92 2 -2 207 84 457 191 1479 632 1988 848
2184 928 121 49 262 107 314 129 52 22 95 38 97 36 2 -2 -157 -72 -354 -156
-594 -255 -902 -394 -895 -404 3 -6 1 -7 -6 -3 -17 11 -794 -325 -779 -337 9
-6 6 -7 -10 -4 -13 3 -20 1 -16 -5 4 -6 -2 -8 -17 -3 -20 5 -21 4 -9 -5 12
-10 11 -11 -8 -7 -14 3 -20 1 -15 -6 4 -7 0 -8 -11 -4 -11 4 -15 3 -10 -4 4
-8 -1 -9 -17 -4 -20 5 -21 4 -9 -5 12 -10 11 -11 -8 -7 -14 3 -20 1 -15 -6 4
-7 0 -8 -11 -4 -11 5 -15 3 -10 -5 5 -8 2 -9 -10 -5 -11 5 -15 3 -10 -5 5 -7
0 -9 -14 -6 -14 4 -20 2 -15 -5 4 -7 0 -8 -11 -4 -9 4 -15 3 -12 -1 3 -5 -61
-37 -142 -71 -447 -191 -682 -294 -679 -297 4 -4 160 62 1597 676 1285 549
1394 595 1340 560 -13 -9 -13 -10 0 -10 8 0 22 5 30 10 13 9 13 10 0 10 -9 1
-5 6 10 15 28 16 54 20 30 5 -13 -9 -13 -10 0 -10 8 0 22 5 30 10 13 9 13 10
0 10 -9 1 -5 6 10 15 14 7 36 11 50 9 17 -4 21 -3 12 4 -11 7 -11 10 2 15 9 4
23 3 33 0 12 -5 14 -3 8 7 -5 9 -4 11 4 6 6 -4 21 -4 32 -1 17 6 19 9 8 17
-10 7 -8 8 7 3 26 -7 76 14 67 28 -4 6 -1 7 6 2 16 -9 92 25 84 38 -3 6 -1 7
6 3 16 -10 123 33 114 47 -3 6 -1 7 6 3 15 -9 143 43 135 55 -3 5 3 6 12 2 11
-4 15 -3 11 4 -5 7 0 9 13 6 19 -5 20 0 18 96 0 56 -3 101 -7 101 -3 -1 -626
-267 -1384 -592z m1128 462 c-3 -5 -12 -10 -18 -10 -7 0 -6 4 3 10 19 12 23
12 15 0z m165 -40 c-8 -5 -19 -10 -25 -10 -5 0 -3 5 5 10 8 5 20 10 25 10 6 0
3 -5 -5 -10z m-90 -40 c-8 -5 -19 -10 -25 -10 -5 0 -3 5 5 10 8 5 20 10 25 10
6 0 3 -5 -5 -10z m-70 -30 c-8 -5 -19 -10 -25 -10 -5 0 -3 5 5 10 8 5 20 10
25 10 6 0 3 -5 -5 -10z m-60 -25 c-14 -8 -29 -14 -35 -14 -5 0 1 6 15 14 14 8
30 14 35 14 6 0 -1 -6 -15 -14z m-60 -25 c-8 -5 -19 -10 -25 -10 -5 0 -3 5 5
10 8 5 20 10 25 10 6 0 3 -5 -5 -10z m-80 -35 c-14 -8 -29 -14 -35 -14 -5 0 1
6 15 14 14 8 30 14 35 14 6 0 -1 -6 -15 -14z m-70 -30 c-14 -8 -29 -14 -35
-14 -5 0 1 6 15 14 14 8 30 14 35 14 6 0 -1 -6 -15 -14z m-290 -15 c-8 -5 -19
-10 -25 -10 -5 0 -3 5 5 10 8 5 20 10 25 10 6 0 3 -5 -5 -10z m-60 -25 c-14
-8 -29 -14 -35 -14 -5 0 1 6 15 14 14 8 30 14 35 14 6 0 -1 -6 -15 -14z m-150
-65 c-8 -5 -19 -10 -25 -10 -5 0 -3 5 5 10 8 5 20 10 25 10 6 0 3 -5 -5 -10z
m-70 -30 c-8 -5 -19 -10 -25 -10 -5 0 -3 5 5 10 8 5 20 10 25 10 6 0 3 -5 -5
-10z m-130 -55 c-14 -8 -29 -14 -35 -14 -5 0 1 6 15 14 14 8 30 14 35 14 6 0
-1 -6 -15 -14z m-80 -35 c-8 -5 -19 -10 -25 -10 -5 0 -3 5 5 10 8 5 20 10 25
10 6 0 3 -5 -5 -10z m-60 -25 c-14 -8 -29 -14 -35 -14 -5 0 1 6 15 14 14 8 30
14 35 14 6 0 -1 -6 -15 -14z m-810 -485 c-8 -5 -19 -10 -25 -10 -5 0 -3 5 5
10 8 5 20 10 25 10 6 0 3 -5 -5 -10z m-370 -50 c-8 -5 -19 -10 -25 -10 -5 0
-3 5 5 10 8 5 20 10 25 10 6 0 3 -5 -5 -10z m250 0 c-8 -5 -19 -10 -25 -10 -5
0 -3 5 5 10 8 5 20 10 25 10 6 0 3 -5 -5 -10z m-290 -14 c0 -6 -331 -148 -336
-144 -4 4 311 145 329 147 4 1 7 -1 7 -3z m220 -16 c-8 -5 -19 -10 -25 -10 -5
0 -3 5 5 10 8 5 20 10 25 10 6 0 3 -5 -5 -10z m-70 -30 c-8 -5 -19 -10 -25
-10 -5 0 -3 5 5 10 8 5 20 10 25 10 6 0 3 -5 -5 -10z m-140 -60 c-8 -5 -19
-10 -25 -10 -5 0 -3 5 5 10 8 5 20 10 25 10 6 0 3 -5 -5 -10z"/>
<path d="M13325 8389 c-161 -70 -257 -107 -270 -103 -13 4 -16 2 -7 -4 18 -12
-107 -65 -134 -56 -13 4 -15 3 -6 -4 10 -7 6 -12 -17 -21 -16 -7 -34 -10 -40
-7 -10 7 -515 -204 -507 -211 1 -2 114 44 251 102 136 58 249 104 251 102 2
-2 -265 -119 -593 -259 -1151 -493 -2397 -1029 -2412 -1039 -25 -16 -10 -10
299 119 326 137 350 147 1418 603 436 187 798 336 804 333 7 -4 8 -2 4 4 -7
11 7 16 41 15 7 -1 11 3 8 7 -7 11 43 30 62 23 11 -4 14 -3 9 5 -5 8 -1 10 10
5 11 -4 15 -2 11 4 -9 14 18 24 40 16 11 -4 14 -3 9 5 -5 8 -1 10 10 5 12 -5
15 -3 9 6 -6 10 -2 11 15 6 15 -5 20 -4 16 4 -5 7 -1 8 10 4 12 -4 15 -3 10 5
-5 8 -1 10 10 5 11 -4 15 -3 11 4 -5 7 1 9 15 6 19 -4 20 -3 8 7 -12 9 -11 10
9 5 16 -5 21 -4 17 4 -5 7 -1 8 10 4 11 -4 15 -3 11 4 -5 7 1 9 15 5 14 -3 19
-1 14 6 -5 8 -1 10 10 5 11 -4 15 -3 11 4 -5 7 1 9 15 6 19 -4 21 -3 8 7 -13
10 -13 11 3 6 21 -7 49 3 41 15 -3 5 3 6 12 2 13 -5 15 -3 9 7 -5 9 -4 11 4 6
16 -10 53 3 45 16 -4 7 -2 8 5 4 15 -9 53 3 46 15 -3 5 2 6 11 2 13 -5 15 -3
9 7 -5 9 -4 11 4 6 15 -9 53 3 46 15 -3 5 2 6 11 2 13 -5 15 -3 9 7 -5 9 -4
11 4 6 16 -10 73 13 64 27 -3 6 -1 7 6 3 15 -9 53 3 46 15 -3 5 2 6 11 2 12
-4 15 -3 10 5 -5 8 -1 10 10 5 13 -5 15 -3 9 7 -5 9 -4 11 4 6 16 -10 53 3 45
16 -5 7 -2 8 5 4 16 -10 73 13 64 27 -3 6 -1 7 6 3 15 -9 143 43 135 55 -3 5
1 6 9 4 20 -8 127 42 127 60 0 8 -6 14 -12 14 -7 -1 -125 -50 -263 -110z"/>
<path d="M9518 8446 c-76 -31 -102 -46 -81 -46 15 0 156 60 168 71 15 15 -5 9
-87 -25z"/>
<path d="M12495 7984 c-2061 -885 -2366 -1017 -2362 -1021 2 -2 262 107 577
242 315 135 575 243 577 241 2 -2 -10 -9 -27 -16 -24 -10 -28 -15 -18 -22 9
-6 6 -7 -8 -3 -28 7 -99 -25 -82 -38 9 -5 5 -6 -8 -2 -29 8 -80 -15 -62 -27 8
-6 4 -7 -11 -3 -14 5 -21 3 -17 -3 3 -5 0 -10 -7 -9 -32 1 -48 -4 -42 -13 4
-6 -1 -7 -11 -3 -13 5 -15 3 -9 -7 5 -8 4 -11 -2 -7 -14 9 -74 -13 -67 -24 3
-5 -3 -6 -12 -2 -13 5 -15 3 -9 -7 6 -10 4 -12 -8 -7 -22 8 -49 -2 -40 -16 4
-6 0 -8 -11 -4 -11 5 -15 3 -10 -5 5 -8 2 -9 -10 -5 -11 4 -15 3 -10 -4 4 -8
-1 -9 -16 -4 -17 5 -21 4 -15 -6 6 -9 3 -11 -9 -6 -9 4 -15 3 -12 -1 3 -5 -36
-25 -85 -46 -49 -21 -88 -40 -86 -42 3 -3 161 62 589 246 85 36 145 67 141 73
-4 6 -1 7 6 3 16 -10 73 13 64 27 -3 6 -1 7 6 3 16 -10 142 44 134 57 -4 6 -1
7 6 3 16 -10 73 13 64 27 -4 6 -1 7 6 2 17 -10 353 134 344 148 -3 6 -1 7 6 3
16 -10 212 74 204 87 -4 6 -1 7 6 3 16 -10 73 13 64 27 -4 6 -1 7 6 3 15 -10
73 13 65 25 -3 5 3 6 12 2 13 -5 15 -3 9 7 -5 9 -4 11 4 6 16 -10 123 33 114
47 -4 6 -1 7 6 3 7 -5 26 -2 42 5 23 9 27 14 17 21 -9 6 -5 7 11 3 17 -5 22
-4 16 5 -5 9 -4 11 4 6 16 -10 123 33 114 47 -4 6 -1 7 6 3 16 -10 73 13 64
27 -4 6 -1 7 6 2 16 -9 92 25 84 38 -3 6 -1 7 6 3 15 -10 123 33 115 45 -3 5
1 7 8 4 7 -3 159 58 338 134 299 128 325 141 328 165 2 17 -1 26 -10 25 -7 -1
-499 -210 -1093 -465z"/>
<path d="M9384 8385 c-10 -8 -14 -15 -8 -15 5 0 19 7 30 15 10 8 14 15 8 15
-5 0 -19 -7 -30 -15z"/>
<path d="M13373 8292 c-131 -56 -220 -99 -216 -105 4 -6 1 -7 -6 -3 -16 10
-73 -13 -64 -27 3 -6 1 -7 -6 -3 -15 9 -53 -3 -46 -15 3 -5 -2 -6 -11 -2 -11
4 -15 2 -11 -4 4 -6 1 -11 -6 -10 -32 1 -48 -4 -42 -13 4 -6 -1 -7 -11 -3 -13
5 -15 3 -9 -7 5 -9 4 -11 -4 -6 -15 9 -53 -3 -46 -15 3 -5 -2 -6 -11 -2 -12 4
-15 3 -10 -5 5 -8 1 -10 -10 -5 -11 4 -15 3 -11 -4 5 -7 -1 -9 -15 -5 -14 3
-19 1 -14 -6 5 -8 1 -10 -10 -5 -11 4 -15 3 -11 -4 5 -7 -1 -9 -15 -5 -14 3
-19 1 -14 -6 5 -8 1 -10 -10 -5 -12 4 -15 3 -10 -5 5 -8 1 -10 -10 -5 -12 4
-15 3 -10 -5 5 -8 1 -10 -10 -5 -13 5 -15 3 -9 -7 5 -9 4 -11 -4 -6 -14 9 -53
-2 -46 -13 5 -9 -45 -34 -53 -26 -3 3 1 5 8 5 7 0 11 2 8 5 -8 8 -39 -6 -33
-15 7 -11 -52 -33 -66 -24 -8 5 -9 3 -4 -6 6 -10 4 -12 -9 -7 -9 4 -15 3 -12
-2 8 -12 -20 -22 -41 -14 -10 4 -14 2 -10 -4 4 -5 -124 -65 -301 -141 -815
-348 -1845 -793 -1860 -803 -29 -18 3 -6 261 105 137 58 251 106 255 106 4 -1
-13 -12 -38 -26 -68 -38 -41 -27 290 114 168 72 350 148 405 170 140 56 423
175 819 346 187 80 341 144 343 143 1 -2 -61 -32 -140 -67 -78 -35 -182 -83
-232 -106 -49 -23 -128 -59 -175 -81 -47 -22 -250 -111 -452 -198 -202 -87
-366 -160 -364 -162 4 -4 2317 986 2329 997 5 4 7 27 5 52 l-3 45 -222 -95z
m-403 -242 c-8 -5 -19 -10 -25 -10 -5 0 -3 5 5 10 8 5 20 10 25 10 6 0 3 -5
-5 -10z m-140 -60 c-8 -5 -19 -10 -25 -10 -5 0 -3 5 5 10 8 5 20 10 25 10 6 0
3 -5 -5 -10z m-70 -30 c-8 -5 -19 -10 -25 -10 -5 0 -3 5 5 10 8 5 20 10 25 10
6 0 3 -5 -5 -10z m-80 -35 c-14 -8 -29 -14 -35 -14 -5 0 1 6 15 14 14 8 30 14
35 14 6 0 -1 -6 -15 -14z m-1830 -755 c-8 -5 -19 -10 -25 -10 -5 0 -3 5 5 10
8 5 20 10 25 10 6 0 3 -5 -5 -10z"/>
<path d="M9285 8346 c-27 -13 -69 -31 -93 -41 -23 -10 -40 -20 -37 -23 3 -3
15 0 28 6 12 6 56 25 97 43 82 34 90 39 69 39 -8 -1 -36 -11 -64 -24z"/>
<path d="M9100 8264 l-25 -15 25 7 c14 3 29 10 35 15 15 14 -7 10 -35 -7z"/>
<path d="M12980 8260 c-8 -5 -10 -10 -5 -10 6 0 17 5 25 10 8 5 11 10 5 10 -5
0 -17 -5 -25 -10z"/>
<path d="M12898 7967 c-384 -165 -696 -302 -694 -304 3 -3 1383 584 1395 594
30 24 -111 -35 -701 -290z"/>
<path d="M9040 8240 c-13 -8 -13 -10 2 -10 9 0 20 5 23 10 8 13 -5 13 -25 0z"/>
<path d="M8975 8210 c-3 -6 1 -7 9 -4 18 7 21 14 7 14 -6 0 -13 -4 -16 -10z"/>
<path d="M8920 8190 c-8 -5 -10 -10 -5 -10 6 0 17 5 25 10 8 5 11 10 5 10 -5
0 -17 -5 -25 -10z"/>
<path d="M8810 8140 c-9 -6 -10 -10 -3 -10 6 0 15 5 18 10 8 12 4 12 -15 0z"/>
<path d="M12245 7945 c-27 -13 -45 -23 -40 -24 6 0 33 11 60 24 28 13 46 23
40 24 -5 0 -32 -11 -60 -24z"/>
<path d="M12140 7900 c-8 -5 -10 -10 -5 -10 6 0 17 5 25 10 8 5 11 10 5 10 -5
0 -17 -5 -25 -10z"/>
<path d="M12070 7870 c-8 -5 -10 -10 -5 -10 6 0 17 5 25 10 8 5 11 10 5 10 -5
0 -17 -5 -25 -10z"/>
<path d="M12115 7630 c-33 -16 -55 -29 -50 -29 6 0 37 13 70 29 33 15 56 28
50 28 -5 0 -37 -12 -70 -28z"/>
<path d="M12010 7585 c-14 -8 -20 -14 -15 -14 6 0 21 6 35 14 14 8 21 14 15
14 -5 0 -21 -6 -35 -14z"/>
<path d="M10540 7370 c-8 -5 -10 -10 -5 -10 6 0 17 5 25 10 8 5 11 10 5 10 -5
0 -17 -5 -25 -10z"/>
<path d="M10470 7340 c-8 -5 -10 -10 -5 -10 6 0 17 5 25 10 8 5 11 10 5 10 -5
0 -17 -5 -25 -10z"/>
<path d="M13555 7265 c-17 -7 -55 -24 -85 -38 -30 -14 -152 -65 -270 -115
-296 -125 -313 -133 -304 -142 5 -4 68 -33 140 -64 l132 -57 216 92 216 93 0
123 c0 68 -3 123 -7 122 -5 0 -22 -7 -38 -14z"/>
<path d="M10020 7125 c-14 -8 -20 -14 -15 -14 6 0 21 6 35 14 14 8 21 14 15
14 -5 0 -21 -6 -35 -14z"/>
<path d="M9960 7100 c-8 -5 -10 -10 -5 -10 6 0 17 5 25 10 8 5 11 10 5 10 -5
0 -17 -5 -25 -10z"/>
<path d="M10462 7067 c-50 -22 -90 -42 -88 -44 3 -4 185 73 194 82 12 11 -18
1 -106 -38z"/>
<path d="M10680 7095 c-14 -8 -20 -14 -15 -14 6 0 21 6 35 14 14 8 21 14 15
14 -5 0 -21 -6 -35 -14z"/>
<path d="M10590 7055 c-14 -8 -20 -14 -15 -14 6 0 21 6 35 14 14 8 21 14 15
14 -5 0 -21 -6 -35 -14z"/>
<path d="M9910 7035 c-14 -8 -20 -14 -15 -14 6 0 21 6 35 14 14 8 21 14 15 14
-5 0 -21 -6 -35 -14z"/>
<path d="M9840 7005 c-14 -8 -20 -14 -15 -14 6 0 21 6 35 14 14 8 21 14 15 14
-5 0 -21 -6 -35 -14z"/>
<path d="M10315 7000 c-3 -6 1 -7 9 -4 18 7 21 14 7 14 -6 0 -13 -4 -16 -10z"/>
<path d="M9780 6980 c-8 -5 -10 -10 -5 -10 6 0 17 5 25 10 8 5 11 10 5 10 -5
0 -17 -5 -25 -10z"/>
<path d="M9870 6955 c-14 -8 -20 -14 -15 -14 6 0 21 6 35 14 14 8 21 14 15 14
-5 0 -21 -6 -35 -14z"/>
<path d="M10080 6945 c-14 -8 -20 -14 -15 -14 6 0 21 6 35 14 14 8 21 14 15
14 -5 0 -21 -6 -35 -14z"/>
<path d="M10240 6930 c-8 -5 -10 -10 -5 -10 6 0 17 5 25 10 8 5 11 10 5 10 -5
0 -17 -5 -25 -10z"/>
<path d="M10020 6920 c-8 -5 -10 -10 -5 -10 6 0 17 5 25 10 8 5 11 10 5 10 -5
0 -17 -5 -25 -10z"/>
<path d="M9790 6870 c-8 -5 -10 -10 -5 -10 6 0 17 5 25 10 8 5 11 10 5 10 -5
0 -17 -5 -25 -10z"/>
<path d="M9720 6840 c-8 -5 -10 -10 -5 -10 6 0 17 5 25 10 8 5 11 10 5 10 -5
0 -17 -5 -25 -10z"/>
<path d="M9675 6820 c-3 -6 1 -7 9 -4 18 7 21 14 7 14 -6 0 -13 -4 -16 -10z"/>
<path d="M4450 5035 l0 -955 2350 0 2350 0 0 955 0 955 -2350 0 -2350 0 0
-955z m515 783 c3 -7 30 -175 60 -373 30 -198 58 -373 63 -389 5 -21 24 76 70
365 34 216 66 397 70 401 5 5 87 7 183 6 l174 -3 5 -700 5 -700 103 695 c57
382 107 698 111 703 4 4 90 6 192 5 l184 -3 16 -100 c9 -55 54 -353 100 -662
46 -309 85 -561 86 -559 4 4 11 540 12 975 l1 353 188 -5 c134 -3 202 -9 239
-21 79 -25 171 -92 225 -164 39 -52 47 -58 43 -35 -9 50 -25 184 -25 204 0 18
8 19 144 19 l144 0 5 -27 c3 -16 31 -225 63 -465 32 -241 61 -438 64 -438 3 0
29 179 58 398 30 218 58 427 64 465 l11 67 401 -2 401 -3 3 -147 3 -148 -131
0 -130 0 2 -177 3 -178 128 -3 127 -3 0 -144 0 -145 -130 0 -130 0 0 -180 0
-180 130 0 130 0 0 -145 0 -145 -275 0 -275 0 -1 683 c0 375 -2 678 -4 672 -3
-5 -47 -284 -100 -620 -53 -335 -100 -638 -106 -672 l-11 -63 -168 0 -168 0
-10 58 c-5 31 -41 245 -78 475 l-69 417 -17 -71 c-21 -85 -58 -156 -116 -220
l-42 -47 85 -294 c47 -161 88 -299 90 -305 3 -10 -29 -13 -139 -13 l-143 0
-47 183 c-95 370 -84 339 -120 335 l-31 -3 -3 -257 -2 -258 -269 0 c-207 0
-270 3 -274 13 -2 6 -10 60 -18 120 l-13 107 -111 0 -112 0 -12 -102 c-7 -57
-15 -111 -17 -120 -5 -17 -27 -18 -280 -18 l-274 0 0 362 c0 199 -2 359 -5
357 -2 -3 -29 -155 -60 -339 -30 -184 -57 -345 -60 -357 -5 -21 -11 -23 -83
-23 l-77 0 -19 113 c-10 61 -37 222 -61 357 l-43 245 -1 -357 -1 -358 -145 0
-145 0 0 800 0 800 180 0 c135 0 182 -3 185 -12z m3795 -643 l0 -655 120 0
120 0 0 -145 0 -145 -265 0 -265 0 0 793 c0 437 3 797 7 800 3 4 69 7 145 7
l138 0 0 -655z"/>
<path d="M6686 5533 c-3 -3 -6 -118 -6 -255 0 -274 -3 -262 63 -234 18 7 47
29 64 50 94 106 79 344 -26 411 -39 25 -84 38 -95 28z"/>
<path d="M5961 5094 c-18 -159 -35 -306 -38 -326 l-6 -38 77 0 c73 0 76 1 76
24 0 25 -68 605 -73 620 -2 4 -18 -122 -36 -280z"/>
<path d="M13577 4918 c-17 -9 -93 -42 -619 -264 -109 -46 -217 -92 -240 -103
-24 -10 -88 -38 -143 -61 -55 -23 -124 -53 -153 -66 -29 -13 -55 -24 -58 -24
-3 0 -29 -11 -57 -24 -29 -13 -92 -40 -140 -60 -48 -20 -106 -45 -130 -55 -23
-11 -166 -72 -317 -136 -450 -191 -513 -219 -517 -231 -2 -6 13 -18 34 -27 21
-8 65 -27 98 -43 33 -15 101 -44 150 -65 50 -21 90 -43 90 -50 0 -7 -52 -34
-115 -61 -242 -103 -300 -130 -300 -142 0 -6 -10 -97 -21 -201 -13 -115 -19
-208 -15 -236 7 -50 -1 -44 156 -109 30 -13 59 -27 64 -32 15 -13 60 -10 92 6
29 15 98 45 303 132 114 49 139 60 223 98 31 14 59 26 62 26 3 0 31 12 63 26
32 15 83 38 113 51 30 14 68 31 83 39 16 8 35 14 43 14 8 0 14 5 14 10 0 6 7
10 15 10 8 0 40 12 72 26 98 44 117 52 161 70 23 10 42 21 42 26 0 4 6 8 14 8
18 0 133 54 164 76 13 10 22 12 22 5 0 -8 5 -8 18 -1 9 5 30 14 45 20 16 6 25
15 21 21 -4 7 3 10 17 9 43 -4 45 2 4 15 l-40 12 37 4 c20 3 34 1 32 -3 -3 -4
2 -8 11 -8 12 0 15 6 10 20 -4 13 -2 20 7 20 8 0 23 8 34 18 10 10 27 16 36
14 10 -2 25 1 35 7 16 9 15 10 -7 11 l-24 0 23 16 c17 12 25 14 31 5 5 -8 19
0 44 25 28 28 40 34 48 26 16 -16 29 -15 22 1 -3 8 6 18 21 25 15 7 25 20 25
32 0 11 3 21 8 21 4 1 16 3 28 4 19 2 112 43 124 55 3 3 22 14 43 24 21 11 37
27 37 37 0 21 24 31 56 23 14 -4 24 -2 24 5 0 6 -6 11 -12 11 -10 0 -10 2 0 8
9 7 12 104 10 454 -3 428 -4 446 -21 436z"/>
<path d="M93 4258 l-93 -41 0 -188 0 -189 23 9 c28 11 232 98 272 116 17 8
143 62 280 120 138 59 254 111 259 115 4 5 -14 11 -40 15 -27 4 -147 22 -266
41 -334 52 -326 52 -435 2z"/>
<path d="M8460 3819 c-7 -11 -9 -24 -5 -27 7 -7 35 25 35 40 0 16 -19 8 -30
-13z"/>
<path d="M5860 3816 c0 -8 4 -17 9 -20 11 -7 33 18 24 27 -12 12 -33 7 -33 -7z"/>
<path d="M7850 3705 c0 -77 4 -125 10 -125 6 0 10 22 10 50 0 61 16 99 47 106
40 10 53 -11 53 -87 0 -55 3 -69 15 -69 12 0 15 14 15 70 0 58 -4 74 -21 91
-21 21 -50 22 -91 4 -16 -6 -18 -1 -18 39 0 25 -4 46 -10 46 -6 0 -10 -48 -10
-125z"/>
<path d="M8586 3821 c-7 -11 18 -33 27 -24 4 3 7 12 7 20 0 15 -26 18 -34 4z"/>
<path d="M4827 3785 c-31 -31 -42 -85 -27 -130 25 -77 116 -101 171 -46 25 26
29 37 29 86 0 49 -4 60 -29 86 -40 39 -106 41 -144 4z m130 -22 c21 -28 26
-79 11 -109 -46 -96 -162 -45 -145 64 8 50 41 76 87 68 19 -3 41 -13 47 -23z"/>
<path d="M5072 3744 c-16 -11 -22 -24 -20 -42 2 -23 11 -30 53 -43 58 -18 72
-44 29 -55 -18 -5 -37 -2 -56 9 -34 19 -47 5 -16 -17 31 -22 84 -20 108 4 34
34 20 58 -46 80 -56 18 -66 35 -30 51 21 10 30 9 51 -5 34 -23 47 -10 16 15
-28 23 -59 24 -89 3z"/>
<path d="M5350 3670 c0 -53 4 -90 10 -90 6 0 10 27 10 60 0 47 4 64 20 80 46
46 80 14 80 -76 0 -84 16 -83 22 2 3 50 9 70 23 80 47 35 75 4 75 -82 0 -36 4
-64 10 -64 6 0 10 32 10 75 0 68 -2 76 -25 91 -24 16 -79 12 -90 -6 -3 -5 -19
-1 -35 8 -28 16 -32 16 -60 0 -25 -14 -30 -15 -30 -3 0 8 -4 15 -10 15 -6 0
-10 -37 -10 -90z"/>
<path d="M5693 3750 c-13 -5 -23 -16 -23 -25 0 -19 9 -19 32 2 15 13 23 14 43
5 31 -14 34 -52 5 -52 -11 0 -36 -7 -55 -14 -27 -12 -35 -21 -35 -40 0 -40 68
-63 99 -33 11 10 14 10 18 0 6 -15 39 -17 48 -3 3 6 -1 10 -9 10 -13 0 -16 12
-16 60 0 87 -37 118 -107 90z m77 -108 c0 -25 -19 -42 -47 -42 -31 0 -42 29
-18 46 28 20 65 18 65 -4z"/>
<path d="M5867 3753 c-4 -3 -7 -44 -7 -90 0 -67 3 -83 15 -83 12 0 15 17 15
90 0 83 -5 101 -23 83z"/>
<path d="M5965 3735 c-55 -54 -18 -155 58 -155 49 0 77 34 77 92 0 38 -5 50
-26 67 -36 28 -79 27 -109 -4z m95 -15 c54 -54 -12 -153 -73 -107 -28 21 -32
68 -7 100 25 32 52 35 80 7z"/>
<path d="M6157 3754 c-4 -4 -7 -45 -7 -91 0 -67 3 -83 15 -83 12 0 15 13 15
56 0 68 13 94 45 94 16 0 25 6 25 15 0 19 -35 20 -52 1 -11 -11 -14 -11 -23 1
-6 8 -14 11 -18 7z"/>
<path d="M6313 3748 c-49 -23 -51 -133 -3 -158 30 -16 76 -11 101 11 l24 21
-25 -7 c-64 -17 -71 -17 -90 0 -37 34 -25 45 45 45 63 0 65 1 65 25 0 14 -11
37 -25 50 -26 26 -56 31 -92 13z m77 -28 c32 -32 24 -40 -35 -40 -61 0 -73 16
-33 44 30 21 44 20 68 -4z"/>
<path d="M6490 3740 c-11 -11 -20 -26 -20 -34 0 -17 38 -46 60 -46 9 0 26 -7
38 -16 18 -13 21 -19 11 -30 -15 -18 -49 -18 -76 1 -28 20 -45 -2 -18 -22 28
-20 89 -17 109 6 33 36 6 71 -66 86 -35 7 -36 32 -3 47 20 9 28 8 43 -5 23
-21 32 -21 32 -2 0 36 -78 47 -110 15z"/>
<path d="M6780 3740 c-11 -11 -20 -26 -20 -34 0 -17 38 -46 60 -46 9 0 26 -7
38 -16 18 -13 21 -19 11 -30 -15 -19 -63 -18 -79 1 -9 11 -16 13 -24 5 -16
-16 7 -32 56 -37 35 -4 47 -1 61 15 34 37 8 72 -65 87 -19 3 -28 12 -28 24 0
26 47 37 69 16 22 -19 31 -19 31 0 0 36 -78 47 -110 15z"/>
<path d="M6950 3686 c0 -54 4 -79 16 -90 18 -18 56 -21 84 -6 13 7 21 7 25 0
17 -27 25 -2 25 80 0 73 -3 90 -15 90 -12 0 -15 -14 -15 -64 0 -71 -14 -96
-55 -96 -33 0 -45 27 -45 99 0 34 -4 61 -10 61 -6 0 -10 -31 -10 -74z"/>
<path d="M7160 3635 c0 -77 4 -125 10 -125 6 0 10 20 10 45 0 42 11 58 25 35
3 -5 21 -10 39 -10 46 0 76 34 76 89 0 73 -63 114 -118 75 -20 -14 -22 -14
-22 0 0 9 -4 16 -10 16 -6 0 -10 -48 -10 -125z m97 99 c27 -7 46 -52 37 -88
-14 -56 -84 -60 -103 -6 -11 33 -7 55 17 83 17 19 18 19 49 11z"/>
<path d="M7389 3741 c-20 -16 -24 -29 -24 -71 0 -42 4 -55 24 -71 27 -22 79
-25 107 -5 24 18 13 31 -14 17 -29 -15 -58 -14 -76 5 -33 32 -20 44 49 44 63
0 65 1 65 25 0 35 -42 75 -78 75 -17 0 -40 -9 -53 -19z m85 -17 c31 -30 20
-44 -34 -44 -54 0 -62 10 -33 42 20 22 46 23 67 2z"/>
<path d="M7570 3670 c0 -53 4 -90 10 -90 6 0 10 24 10 53 0 59 18 94 52 99 27
4 36 28 11 28 -10 0 -29 -7 -41 -16 -20 -14 -22 -14 -22 0 0 9 -4 16 -10 16
-6 0 -10 -37 -10 -90z"/>
<path d="M8075 3735 c-56 -55 -18 -155 59 -155 35 0 80 30 56 38 -6 2 -17 -1
-23 -7 -17 -17 -55 -13 -77 9 -33 33 -24 40 50 40 39 0 70 4 70 9 0 4 -5 23
-11 40 -19 54 -84 67 -124 26z m87 -12 c33 -30 23 -43 -37 -43 -47 0 -54 2
-48 18 14 41 54 53 85 25z"/>
<path d="M8260 3673 c0 -56 4 -93 10 -93 6 0 10 25 10 56 0 68 13 94 45 94 16
0 25 6 25 15 0 19 -34 19 -50 0 -11 -13 -14 -13 -26 2 -11 15 -13 5 -14 -74z"/>
<path d="M8406 3739 c-36 -28 -38 -105 -3 -137 54 -51 137 -10 137 68 0 77
-74 116 -134 69z m80 -7 c22 -14 35 -53 29 -83 -11 -49 -60 -64 -95 -29 -50
50 9 150 66 112z"/>
<path d="M8590 3671 c0 -75 3 -91 15 -91 13 0 15 14 13 87 -2 58 -7 88 -15 91
-10 3 -13 -19 -13 -87z"/>
<path d="M8690 3742 c-18 -14 -21 -25 -16 -45 5 -22 15 -29 52 -38 25 -7 48
-18 51 -26 12 -31 -53 -45 -81 -18 -11 11 -17 12 -22 4 -22 -36 90 -54 120
-20 33 36 6 71 -66 86 -19 4 -28 12 -28 25 0 26 36 35 65 16 30 -20 35 -20 35
-1 0 16 -38 35 -70 35 -10 0 -28 -8 -40 -18z"/>
<path d="M7680 3675 c0 -12 13 -15 55 -15 42 0 55 3 55 15 0 12 -13 15 -55 15
-42 0 -55 -3 -55 -15z"/>
<path d="M1385 3260 c-214 -93 -408 -176 -430 -186 -22 -9 -62 -26 -90 -38
-27 -12 -233 -101 -457 -196 l-408 -174 0 -198 c0 -109 2 -198 4 -198 2 0 23
9 47 19 24 10 152 65 284 121 132 56 258 110 280 120 22 10 191 82 375 160
184 78 360 153 390 167 54 25 57 28 230 286 170 255 190 288 173 286 -4 0
-183 -77 -398 -169z"/>
<path d="M5350 3359 c0 -50 0 -50 -22 -35 -30 21 -61 20 -89 -3 -20 -16 -24
-29 -24 -71 0 -42 4 -55 24 -71 29 -23 68 -24 93 -2 17 15 18 15 18 0 0 -10 5
-17 10 -17 6 0 10 48 10 125 0 77 -4 125 -10 125 -5 0 -10 -23 -10 -51z m-20
-59 c38 -38 15 -120 -35 -120 -35 0 -55 26 -55 70 0 29 6 43 22 54 30 21 44
20 68 -4z"/>
<path d="M7146 3394 c-9 -22 3 -32 14 -14 8 12 13 13 30 3 28 -18 57 -16 64 3
9 22 -3 32 -14 14 -8 -12 -13 -13 -30 -2 -28 17 -57 15 -64 -4z"/>
<path d="M8254 3399 c-8 -14 11 -33 25 -25 6 4 11 14 11 22 0 16 -26 19 -36 3z"/>
<path d="M8350 3310 c0 -47 4 -80 10 -80 6 0 10 33 10 80 0 47 -4 80 -10 80
-6 0 -10 -33 -10 -80z"/>
<path d="M5740 3360 c0 -13 -7 -20 -20 -20 -11 0 -20 -7 -20 -15 0 -8 9 -15
20 -15 17 0 19 -8 22 -66 2 -48 8 -70 19 -77 19 -12 72 -1 63 14 -3 6 -13 8
-21 5 -28 -11 -43 14 -43 70 0 52 0 53 33 56 17 2 32 8 32 13 0 6 -15 11 -32
13 -25 2 -33 8 -33 23 0 10 -4 19 -10 19 -5 0 -10 -9 -10 -20z"/>
<path d="M7010 3361 c0 -11 -9 -21 -21 -24 -23 -6 -17 -27 7 -27 11 0 14 -15
14 -64 0 -43 5 -67 14 -75 18 -15 68 -10 74 7 3 9 -5 12 -24 10 -29 -3 -29 -3
-32 60 l-3 62 31 0 c20 0 30 5 30 15 0 10 -10 15 -30 15 -23 0 -30 4 -30 20 0
11 -7 20 -15 20 -8 0 -15 -8 -15 -19z"/>
<path d="M5449 3321 c-31 -25 -18 -38 16 -15 21 14 30 15 51 5 39 -17 27 -44
-24 -54 -28 -5 -48 -17 -58 -33 -15 -23 -15 -26 1 -44 20 -22 55 -26 85 -10
13 7 21 7 25 0 8 -12 45 -13 45 -1 0 5 -7 11 -15 15 -11 4 -15 21 -15 65 0 51
-3 62 -22 75 -30 21 -61 20 -89 -3z m91 -95 c0 -22 -29 -46 -56 -46 -32 0 -43
28 -19 46 25 19 75 18 75 0z"/>
<path d="M5893 3328 c-49 -23 -51 -133 -3 -158 27 -14 73 -12 96 4 24 18 13
31 -14 17 -30 -16 -57 -13 -75 7 -31 34 -21 42 48 42 63 0 65 1 65 25 0 14
-11 37 -25 50 -26 26 -56 31 -92 13z m77 -28 c32 -32 24 -40 -35 -40 -61 0
-73 16 -33 44 30 21 44 20 68 -4z"/>
<path d="M6060 3250 c0 -53 4 -90 10 -90 6 0 10 24 10 53 0 59 18 94 52 99 27
4 36 28 11 28 -10 0 -29 -7 -41 -16 -20 -14 -22 -14 -22 0 0 9 -4 16 -10 16
-6 0 -10 -37 -10 -90z"/>
<path d="M6200 3253 c0 -56 4 -93 10 -93 6 0 10 25 10 56 0 68 13 94 45 94 16
0 25 6 25 15 0 19 -20 19 -45 1 -17 -12 -21 -12 -32 3 -10 13 -12 0 -13 -76z"/>
<path d="M6339 3321 c-31 -25 -19 -38 15 -16 28 18 61 13 70 -11 9 -23 1 -31
-44 -38 -27 -4 -45 -14 -56 -31 -16 -24 -15 -27 1 -45 20 -22 55 -26 85 -10
13 7 21 7 25 0 8 -12 45 -13 45 -1 0 5 -7 11 -15 15 -11 4 -15 21 -15 65 0 51
-3 62 -22 75 -30 21 -61 20 -89 -3z m91 -95 c0 -22 -29 -46 -56 -46 -32 0 -43
28 -19 46 25 19 75 18 75 0z"/>
<path d="M6639 3321 c-20 -16 -24 -29 -24 -71 0 -42 4 -55 24 -71 27 -22 79
-25 107 -5 24 18 13 31 -14 17 -29 -15 -58 -14 -76 5 -33 32 -20 44 49 44 63
0 65 1 65 25 0 35 -42 75 -78 75 -17 0 -40 -9 -53 -19z m85 -17 c31 -30 20
-44 -34 -44 -54 0 -62 10 -33 42 20 22 46 23 67 2z"/>
<path d="M6832 3324 c-16 -11 -22 -24 -20 -42 2 -23 11 -30 53 -43 37 -12 50
-21 50 -35 0 -25 -56 -32 -78 -9 -11 11 -18 12 -23 4 -20 -33 73 -52 114 -23
44 31 15 73 -60 89 -19 4 -28 12 -28 25 0 26 36 35 65 16 30 -20 35 -20 35 -1
0 33 -70 46 -108 19z"/>
<path d="M7149 3321 c-31 -25 -19 -38 15 -16 28 18 61 13 70 -11 9 -23 1 -31
-44 -38 -27 -4 -45 -14 -56 -31 -16 -24 -15 -27 1 -45 20 -22 55 -26 85 -10
13 7 21 7 25 0 8 -12 45 -13 45 -1 0 5 -7 11 -15 15 -11 4 -15 21 -15 65 0 51
-3 62 -22 75 -30 21 -61 20 -89 -3z m91 -101 c0 -36 -74 -56 -87 -24 -8 22 22
44 59 44 21 0 28 -5 28 -20z"/>
<path d="M7347 3320 c-23 -18 -27 -29 -27 -69 0 -58 29 -91 79 -91 68 0 108
94 64 149 -27 33 -82 38 -116 11z m69 -6 c23 -6 44 -42 44 -74 0 -26 -34 -60
-60 -60 -29 0 -60 36 -60 70 0 17 9 39 20 50 22 22 25 22 56 14z"/>
<path d="M7663 3328 c-13 -6 -23 -17 -23 -25 0 -17 5 -16 35 3 27 17 60 12 69
-12 9 -23 -2 -34 -34 -34 -41 0 -85 -40 -76 -68 9 -27 50 -39 88 -24 16 6 30
6 34 1 7 -12 44 -12 44 1 0 6 -7 10 -15 10 -12 0 -15 14 -15 64 0 56 -3 67
-22 80 -26 18 -53 19 -85 4z m87 -100 c0 -20 -32 -48 -57 -48 -31 0 -42 29
-18 46 23 17 75 18 75 2z"/>
<path d="M7855 3315 c-19 -18 -25 -35 -25 -68 0 -69 55 -107 111 -77 17 10 19
7 19 -35 0 -33 4 -45 15 -45 13 0 15 21 15 125 0 77 -4 125 -10 125 -5 0 -10
-7 -10 -16 0 -14 -2 -14 -22 0 -32 23 -65 20 -93 -9z m83 -11 c16 -11 22 -25
22 -54 0 -44 -20 -70 -55 -70 -50 0 -73 82 -35 120 24 24 38 25 68 4z"/>
<path d="M8050 3266 c0 -54 4 -79 16 -90 18 -19 57 -21 87 -5 16 9 22 9 25 0
2 -6 8 -11 13 -11 5 0 9 41 9 90 0 73 -3 90 -15 90 -12 0 -15 -14 -15 -64 0
-71 -14 -96 -55 -96 -33 0 -45 27 -45 99 0 34 -4 61 -10 61 -6 0 -10 -31 -10
-74z"/>
<path d="M8260 3250 c0 -53 4 -90 10 -90 6 0 10 37 10 90 0 53 -4 90 -10 90
-6 0 -10 -37 -10 -90z"/>
<path d="M8340 3180 c0 -13 7 -20 20 -20 13 0 20 7 20 20 0 13 -7 20 -20 20
-13 0 -20 -7 -20 -20z"/>
<path d="M1870 2930 c-8 -5 -10 -10 -5 -10 6 0 17 5 25 10 8 5 11 10 5 10 -5
0 -17 -5 -25 -10z"/>
<path d="M968 2512 l-968 -417 0 -49 c0 -42 2 -47 18 -42 127 48 650 282 645
289 -3 6 -1 7 6 3 16 -10 53 3 45 16 -4 6 -2 8 4 4 15 -9 93 24 85 37 -4 6 -1
7 6 3 14 -9 73 13 66 24 -3 5 5 6 17 3 19 -4 20 -3 8 7 -12 9 -11 10 9 5 17
-5 22 -4 16 5 -5 8 -4 11 3 7 13 -9 44 2 37 13 -3 5 5 6 17 2 14 -3 19 -1 14
6 -5 8 -1 10 10 5 13 -5 15 -3 9 7 -5 9 -4 11 4 6 15 -9 53 3 46 15 -3 5 2 6
11 2 12 -4 15 -3 10 5 -5 8 -1 10 10 5 11 -4 15 -3 11 4 -5 7 1 9 15 5 14 -3
19 -1 14 6 -5 8 -1 10 10 5 12 -4 15 -3 10 5 -5 8 -1 10 10 5 12 -5 15 -3 9 6
-6 10 -2 11 15 6 15 -5 20 -4 16 4 -5 7 -1 8 10 4 12 -4 15 -3 10 5 -5 8 -1
10 10 5 12 -5 15 -3 9 6 -6 10 -2 11 15 6 15 -5 20 -4 16 4 -5 7 -1 8 10 4 11
-4 15 -2 11 4 -9 14 18 24 40 16 11 -4 14 -3 9 5 -5 8 -1 10 10 5 12 -4 15 -3
10 5 -5 8 -1 10 10 5 11 -4 15 -3 10 5 -8 13 29 26 45 16 7 -4 9 -3 6 3 -7 12
40 36 54 28 5 -4 9 -1 9 5 0 7 7 9 16 6 8 -3 13 -2 10 2 -2 4 101 53 230 107
129 55 234 103 234 106 0 4 -6 12 -13 18 -10 8 -80 -18 -292 -109 -153 -66
-280 -118 -282 -116 -2 2 25 16 59 31 35 15 108 49 163 75 101 48 147 69 263
121 54 25 78 41 55 38 -5 0 -443 -188 -975 -417z m402 133 c-14 -8 -29 -14
-35 -14 -5 0 1 6 15 14 14 8 30 14 35 14 6 0 -1 -6 -15 -14z m-70 -30 c-14 -8
-29 -14 -35 -14 -5 0 1 6 15 14 14 8 30 14 35 14 6 0 -1 -6 -15 -14z m-70 -30
c-14 -8 -29 -14 -35 -14 -5 0 1 6 15 14 14 8 30 14 35 14 6 0 -1 -6 -15 -14z
m-80 -35 c-8 -5 -19 -10 -25 -10 -5 0 -3 5 5 10 8 5 20 10 25 10 6 0 3 -5 -5
-10z m-210 -90 c-8 -5 -19 -10 -25 -10 -5 0 -3 5 5 10 8 5 20 10 25 10 6 0 3
-5 -5 -10z"/>
<path d="M1790 2895 c-14 -8 -20 -14 -15 -14 6 0 21 6 35 14 14 8 21 14 15 14
-5 0 -21 -6 -35 -14z"/>
<path d="M1720 2865 c-14 -8 -20 -14 -15 -14 6 0 21 6 35 14 14 8 21 14 15 14
-5 0 -21 -6 -35 -14z"/>
<path d="M875 2505 c-440 -190 -817 -352 -839 -360 -21 -9 -36 -18 -33 -21 3
-3 356 145 784 330 811 349 915 394 898 395 -5 0 -370 -155 -810 -344z"/>
<path d="M1962 2827 c-12 -7 -19 -17 -15 -22 4 -4 2 -5 -5 -1 -17 10 -74 -13
-65 -27 3 -6 1 -7 -6 -3 -16 10 -142 -44 -134 -57 3 -6 1 -7 -6 -3 -16 10
-212 -74 -204 -87 4 -6 1 -7 -6 -2 -16 9 -92 -25 -84 -38 3 -6 1 -7 -6 -3 -16
10 -53 -3 -45 -16 4 -7 2 -8 -5 -4 -16 10 -142 -44 -134 -57 3 -6 1 -7 -6 -3
-16 10 -212 -74 -204 -87 4 -6 1 -7 -6 -3 -16 10 -73 -13 -64 -27 3 -6 1 -7
-6 -3 -7 5 -215 -79 -486 -196 -459 -196 -475 -204 -475 -230 l0 -27 82 35
c46 19 504 215 1019 436 898 384 936 401 921 419 -19 22 -29 23 -60 6z"/>
<path d="M1830 2684 c-118 -51 -221 -91 -228 -89 -8 3 -10 0 -6 -7 5 -8 2 -9
-10 -5 -11 5 -15 3 -10 -5 5 -7 0 -9 -14 -6 -14 4 -20 2 -15 -5 4 -7 0 -8 -11
-4 -11 5 -15 3 -10 -5 5 -8 2 -9 -10 -5 -11 5 -15 3 -10 -5 5 -8 2 -9 -9 -5
-22 8 -49 -2 -40 -16 4 -6 0 -8 -10 -4 -10 3 -17 2 -17 -4 0 -6 -4 -8 -9 -5
-14 9 -42 -5 -34 -17 4 -6 0 -8 -10 -4 -22 8 -69 -12 -60 -26 3 -6 1 -7 -6 -3
-15 10 -312 -115 -304 -127 3 -6 2 -7 -4 -4 -15 9 -94 -24 -86 -36 4 -6 1 -7
-6 -2 -16 9 -92 -25 -84 -38 3 -6 1 -7 -6 -3 -16 10 -53 -3 -45 -16 4 -7 2 -8
-5 -4 -15 10 -122 -34 -114 -47 3 -6 1 -7 -5 -3 -15 9 -93 -24 -85 -37 3 -6 1
-7 -6 -3 -7 5 -130 -43 -284 -109 -211 -90 -273 -121 -274 -135 -2 -17 7 -15
79 16 45 19 83 33 85 30 2 -2 -33 -19 -79 -38 l-83 -35 -3 -396 c-1 -226 2
-397 7 -397 4 0 28 8 52 19 24 10 51 21 59 24 43 17 327 143 341 152 12 7 393
566 453 663 11 18 -12 11 -124 -38 -47 -21 -187 -81 -311 -134 -243 -103 -245
-104 -392 -87 l-57 6 957 409 c866 370 1032 443 953 421 -23 -6 -22 -5 5 12
41 26 123 56 134 49 9 -6 101 22 101 31 0 4 -20 44 -25 51 -1 1 -71 -27 -155
-63 -85 -36 -155 -63 -157 -61 -2 2 63 32 144 66 81 35 150 65 152 67 3 2 0 8
-6 14 -8 8 -89 -23 -280 -105 -231 -98 -807 -337 -853 -352 -62 -22 74 39 455
204 662 285 656 282 642 297 -10 11 -18 11 -42 0 -602 -257 -990 -421 -1025
-432 -13 -4 -13 -4 0 6 13 9 13 11 0 11 -8 0 -22 -5 -30 -10 -13 -9 -13 -10 0
-10 8 -1 3 -8 -13 -16 -15 -8 -32 -12 -37 -9 -6 4 -20 3 -31 0 -17 -6 -19 -9
-8 -16 8 -5 10 -9 4 -9 -5 0 -16 4 -23 9 -9 5 183 93 577 261 325 139 591 257
591 262 0 13 -1 12 -230 -88z m100 -34 c-8 -5 -19 -10 -25 -10 -5 0 -3 5 5 10
8 5 20 10 25 10 6 0 3 -5 -5 -10z m205 -50 c-53 -24 -70 -24 -25 0 19 11 42
19 50 19 8 0 -3 -9 -25 -19z m-315 -80 c-8 -5 -19 -10 -25 -10 -5 0 -3 5 5 10
8 5 20 10 25 10 6 0 3 -5 -5 -10z m70 -25 c-14 -8 -29 -14 -35 -14 -5 0 1 6
15 14 14 8 30 14 35 14 6 0 -1 -6 -15 -14z m-80 -35 c-8 -5 -19 -10 -25 -10
-5 0 -3 5 5 10 8 5 20 10 25 10 6 0 3 -5 -5 -10z m-60 -25 c-14 -8 -29 -14
-35 -14 -5 0 1 6 15 14 14 8 30 14 35 14 6 0 -1 -6 -15 -14z m-60 -25 c-8 -5
-19 -10 -25 -10 -5 0 -3 5 5 10 8 5 20 10 25 10 6 0 3 -5 -5 -10z m-520 -10
c-8 -5 -19 -10 -25 -10 -5 0 -3 5 5 10 8 5 20 10 25 10 6 0 3 -5 -5 -10z m360
-60 c-8 -5 -19 -10 -25 -10 -5 0 -3 5 5 10 8 5 20 10 25 10 6 0 3 -5 -5 -10z
m-679 -104 c-18 -10 -20 -15 -10 -20 8 -3 3 -3 -10 0 -17 5 -21 3 -16 -6 5 -9
4 -11 -4 -6 -16 10 -53 -3 -45 -16 5 -7 2 -8 -5 -4 -15 10 -73 -13 -65 -25 3
-5 -3 -6 -12 -2 -13 5 -15 3 -9 -7 6 -9 4 -11 -4 -5 -17 10 -193 -64 -184 -78
4 -6 1 -7 -6 -3 -15 10 -163 -53 -155 -65 3 -5 -1 -6 -9 -3 -8 3 -40 -7 -72
-21 -32 -14 -60 -24 -62 -22 -2 2 148 70 334 150 308 133 399 169 334 133z
m119 -26 c-8 -5 -19 -10 -25 -10 -5 0 -3 5 5 10 8 5 20 10 25 10 6 0 3 -5 -5
-10z m-60 -25 c-14 -8 -29 -14 -35 -14 -5 0 1 6 15 14 14 8 30 14 35 14 6 0
-1 -6 -15 -14z m-70 -30 c-14 -8 -29 -14 -35 -14 -5 0 1 6 15 14 14 8 30 14
35 14 6 0 -1 -6 -15 -14z m-70 -30 c-14 -8 -29 -14 -35 -14 -5 0 1 6 15 14 14
8 30 14 35 14 6 0 -1 -6 -15 -14z m220 -15 c-8 -5 -19 -10 -25 -10 -5 0 -3 5
5 10 8 5 20 10 25 10 6 0 3 -5 -5 -10z m-70 -30 c-8 -5 -19 -10 -25 -10 -5 0
-3 5 5 10 8 5 20 10 25 10 6 0 3 -5 -5 -10z m-70 -30 c-8 -5 -19 -10 -25 -10
-5 0 -3 5 5 10 8 5 20 10 25 10 6 0 3 -5 -5 -10z m-280 -10 c-8 -5 -19 -10
-25 -10 -5 0 -3 5 5 10 8 5 20 10 25 10 6 0 3 -5 -5 -10z m210 -20 c-8 -5 -19
-10 -25 -10 -5 0 -3 5 5 10 8 5 20 10 25 10 6 0 3 -5 -5 -10z m-300 -20 c-8
-5 -19 -10 -25 -10 -5 0 -3 5 5 10 8 5 20 10 25 10 6 0 3 -5 -5 -10z m-70 -30
c-8 -5 -19 -10 -25 -10 -5 0 -3 5 5 10 8 5 20 10 25 10 6 0 3 -5 -5 -10z m170
-34 c0 -2 -7 -7 -16 -10 -8 -3 -12 -2 -9 4 6 10 25 14 25 6z m-220 -96 c-8 -5
-19 -10 -25 -10 -5 0 -3 5 5 10 8 5 20 10 25 10 6 0 3 -5 -5 -10z"/>
<path d="M1870 2670 c-8 -5 -10 -10 -5 -10 6 0 17 5 25 10 8 5 11 10 5 10 -5
0 -17 -5 -25 -10z"/>
<path d="M1790 2635 c-14 -8 -20 -14 -15 -14 6 0 21 6 35 14 14 8 21 14 15 14
-5 0 -21 -6 -35 -14z"/>
<path d="M1730 2610 c-8 -5 -10 -10 -5 -10 6 0 17 5 25 10 8 5 11 10 5 10 -5
0 -17 -5 -25 -10z"/>
<path d="M1625 2565 c-27 -13 -45 -23 -40 -24 6 0 33 11 60 24 28 13 46 23 40
24 -5 0 -32 -11 -60 -24z"/>
<path d="M1298 2427 c-141 -61 -255 -113 -253 -115 3 -3 460 189 505 214 65
35 -17 3 -252 -99z"/>
<path d="M12278 2519 c-12 -6 -18 -22 -18 -45 0 -27 5 -37 25 -46 31 -14 74 3
76 29 4 61 -35 90 -83 62z m66 -21 c13 -19 14 -25 2 -43 -26 -39 -76 -26 -76
19 0 46 48 62 74 24z"/>
<path d="M12285 2500 c-3 -6 -3 -19 0 -30 7 -21 39 -27 51 -9 4 8 0 9 -15 4
-17 -5 -21 -2 -21 15 0 17 4 20 21 15 15 -5 19 -4 15 4 -9 14 -43 14 -51 1z"/>
<path d="M12420 2511 c-9 -17 -8 -21 5 -21 8 0 15 5 15 10 0 6 5 10 10 10 18
0 10 -26 -15 -50 -34 -32 -32 -40 10 -40 19 0 35 5 35 10 0 6 -10 10 -22 10
l-22 0 22 16 c16 11 22 24 20 42 -4 35 -42 43 -58 13z"/>
<path d="M12499 2503 c-14 -38 2 -78 32 -78 17 0 26 8 33 27 21 60 -42 111
-65 51z m47 -19 c8 -30 -12 -57 -25 -36 -10 16 -2 62 10 62 5 0 12 -12 15 -26z"/>
<path d="M12596 2515 c-17 -13 -18 -15 -3 -15 13 0 17 -9 17 -40 0 -22 5 -40
10 -40 6 0 10 25 10 55 0 59 -4 63 -34 40z"/>
<path d="M12673 2518 c-15 -20 -10 -80 8 -91 32 -20 48 -2 46 50 -2 40 -5 48
-23 51 -11 2 -25 -3 -31 -10z m37 -18 c0 -5 -7 -10 -15 -10 -8 0 -15 5 -15 10
0 6 7 10 15 10 8 0 15 -4 15 -10z m0 -45 c0 -8 -7 -15 -15 -15 -8 0 -15 7 -15
15 0 8 7 15 15 15 8 0 15 -7 15 -15z"/>
<path d="M12790 2476 c0 -62 19 -79 21 -18 l1 37 10 -38 c11 -41 29 -44 39 -6
7 24 7 24 8 -3 1 -17 7 -28 15 -28 10 0 14 15 14 55 0 46 -3 55 -18 55 -12 0
-21 -12 -27 -37 l-10 -38 -10 35 c-5 20 -17 36 -26 38 -14 3 -17 -5 -17 -52z"/>
<path d="M12927 2478 c-9 -28 -14 -54 -10 -57 3 -4 8 0 10 7 5 14 53 17 53 2
0 -5 6 -10 14 -10 12 0 12 8 -3 53 -24 70 -43 71 -64 5z m43 -10 c0 -5 -4 -8
-10 -8 -5 0 -10 10 -10 23 0 18 2 19 10 7 5 -8 10 -18 10 -22z"/>
<path d="M13026 2521 c-9 -14 -4 -91 6 -97 7 -5 12 10 9 29 -3 17 41 5 46 -13
10 -38 22 -20 20 33 l-2 52 -37 3 c-20 2 -39 -2 -42 -7z m64 -26 c0 -8 -9 -15
-20 -15 -11 0 -20 7 -20 15 0 8 9 15 20 15 11 0 20 -7 20 -15z"/>
<path d="M13139 2478 c10 -28 22 -53 28 -55 13 -5 49 95 38 105 -8 8 -25 -18
-25 -40 0 -33 -19 -28 -26 7 -3 19 -12 35 -20 35 -10 0 -9 -11 5 -52z"/>
<path d="M13230 2475 l0 -55 40 0 c22 0 40 5 40 10 0 6 -13 10 -30 10 -20 0
-30 5 -30 15 0 9 9 15 25 15 14 0 25 5 25 10 0 6 -11 10 -25 10 -14 0 -25 5
-25 10 0 6 14 10 30 10 17 0 30 5 30 10 0 6 -18 10 -40 10 l-40 0 0 -55z"/>
<path d="M13330 2475 l0 -55 35 0 c19 0 35 5 35 10 0 6 -11 10 -25 10 -23 0
-25 4 -25 45 0 25 -4 45 -10 45 -5 0 -10 -25 -10 -55z"/>
<path d="M960 2280 c-8 -5 -10 -10 -5 -10 6 0 17 5 25 10 8 5 11 10 5 10 -5 0
-17 -5 -25 -10z"/>
<path d="M5420 80 c-13 -8 -13 -10 2 -10 9 0 20 5 23 10 8 13 -5 13 -25 0z"/>
<path d="M5370 60 c-13 -8 -13 -10 2 -10 9 0 20 5 23 10 8 13 -5 13 -25 0z"/>
<path d="M5323 43 c-13 -2 -23 -9 -23 -14 0 -13 13 -11 36 6 10 8 17 14 14 13
-3 0 -15 -3 -27 -5z"/>
<path d="M5250 10 c-12 -8 -11 -10 7 -10 12 0 25 5 28 10 8 13 -15 13 -35 0z"/>
</g>
</svg>
